PathFileType	4	(X/Y/Z)	C:/Users/opensim2020/Desktop/walking_exp_matlab/subject03_walking06_straight_03.trc																																																																																																																																		
DataRate	CameraRate	NumFrames	NumMarkers	Units	OrigDataRate	OrigDataStartFrame	OrigNumFrames																																																																																																																														
100	100	8	44	mm	100	2030	280																																																																																																																														
Frame#	Time	LFHD			RFHD			LBHD			RBHD			C7			T10			CLAV			STRN			RBAK			LSHO			LUPA			LELB			LFRM			LWRA			LWRB			LFIN			RSHO			RUPA			RELB			RFRM			RWRA			RWRB			RFIN			LASI			RASI			LPSI			RPSI			LTHI			LKNE			LTIB			LANK			LHEE			LTOE			RTHI			RKNE			RTIB			RANK			RHEE			RTOE			*39			*40			*41			*42			*43		
		X1	Y1	Z1	X2	Y2	Z2	X3	Y3	Z3	X4	Y4	Z4	X5	Y5	Z5	X6	Y6	Z6	X7	Y7	Z7	X8	Y8	Z8	X9	Y9	Z9	X10	Y10	Z10	X11	Y11	Z11	X12	Y12	Z12	X13	Y13	Z13	X14	Y14	Z14	X15	Y15	Z15	X16	Y16	Z16	X17	Y17	Z17	X18	Y18	Z18	X19	Y19	Z19	X20	Y20	Z20	X21	Y21	Z21	X22	Y22	Z22	X23	Y23	Z23	X24	Y24	Z24	X25	Y25	Z25	X26	Y26	Z26	X27	Y27	Z27	X28	Y28	Z28	X29	Y29	Z29	X30	Y30	Z30	X31	Y31	Z31	X32	Y32	Z32	X33	Y33	Z33	X34	Y34	Z34	X35	Y35	Z35	X36	Y36	Z36	X37	Y37	Z37	X38	Y38	Z38	X39	Y39	Z39	X40	Y40	Z40	X41	Y41	Z41	X42	Y42	Z42	X43	Y43	Z43	X44	Y44	Z44
																																																																																																																																					
36	0.35	-880.85315	1629.85376	1357.41663	-883.30695	1630.54797	1490.58081	-1005.1673	1572.90857	1358.8905	-1002.37939	1574.01941	1490.06995	-1027.68701	1427.21558	1406.99255	-1082.11206	1117.53613	1410.52905	-910.32135	1342.47278	1415.3418	-878.15259	1175.37805	1409.73047	-1096.16882	1257.48511	1500.65369	-939.54272	1382.96387	1259.61047	-916.49786	1195.51648	1178.5415	-880.96594	1078.91443	1160.64685	-828.02759	959.77203	1157.97168	-791.5946	844.44366	1182.40894	-803.61005	852.38824	1128.55457	-769.30072	775.98553	1131.64612	-962.58966	1370.37024	1572.02197	-978.93268	1150.06885	1646.6499	-968.39063	1037.80835	1660.76074	-949.70508	902.10095	1660.50195	-915.46143	809.27283	1623.99121	-948.99304	801.68134	1666.1377	-921.69696	732.54968	1655.76953	-927.35968	946.75763	1290.56128	-920.36407	944.87378	1528.60498	-1086.02661	976.71185	1347.55957	-1080.39771	977.92163	1495.88147	-996.09528	647.83966	1257.17078	-994.25305	471.00479	1298.26599	-1048.36035	282.48917	1296.34253	-1063.96753	71.37048	1337.68823	-1104.06262	36.24058	1374.83142	-911.00439	35.464	1357.67163	-911.21368	654.7793	1576.97485	-841.90723	488.64468	1551.39026	-947.96417	330.19812	1558.4043	-1069.40198	150.81241	1521.76575	-1126.12756	141.26665	1471.94714	-966.79913	54.92771	1500.4375	-970.7063	1681.9812	1410.13721	NaN	NaN	NaN	NaN	NaN	NaN	NaN	NaN	NaN	NaN	NaN	NaN
37	0.36	-872.53217	1629.45874	1357.56592	-875.54425	1629.9696	1491.04333	-997.02533	1572.84534	1358.79871	-994.33099	1573.74316	1489.92053	-1020.00812	1426.73279	1406.71863	-1074.2821	1117.13281	1409.55554	-902.71631	1342.09888	1415.04504	-870.33813	1175.12476	1409.2699	-1088.72717	1256.77759	1499.73218	-931.78302	1383.21436	1259.42639	-907.49469	1196.32471	1177.75281	-870.44867	1080.18262	1159.62866	-814.99432	962.18225	1157.30334	-775.57904	847.96161	1182.46472	-788.31201	855.11505	1128.77209	-751.9671	779.82025	1132.22742	-955.33588	1369.55615	1571.70105	-973.10388	1149.31335	1646.06165	-962.64758	1036.94629	1659.99011	-943.50818	901.22809	1659.69702	-909.34546	808.3913	1623.20007	-943.04108	800.68494	1665.11475	-915.86542	731.69995	1654.75415	-919.64117	946.25946	1289.82568	-912.48706	944.83893	1527.97253	-1078.31897	976.30762	1347.01453	-1072.65161	977.49298	1495.21936	-990.18469	647.466	1256.83179	-989.71161	470.66342	1298.05188	-1045.86438	282.52484	1296.20251	-1063.72339	71.48387	1337.80908	-1103.62891	36.27746	1374.53259	-910.91833	35.40079	1357.6438	-900.45184	655.60608	1576.75256	-829.44141	490.26517	1550.21851	-929.24072	327.1983	1556.93555	-1042.60168	142.63861	1519.36035	-1098.50391	130.19972	1469.25659	-935.07727	52.60524	1498.44165	-962.41528	1681.68042	1410.30444	NaN	NaN	NaN	NaN	NaN	NaN	NaN	NaN	NaN	NaN	NaN	NaN
38	0.37	-864.31549	1628.95483	1357.7113	-867.35046	1629.27075	1491.24426	-988.85016	1572.60486	1358.80884	-986.38361	1573.32104	1490.01843	-1012.28406	1426.35669	1406.61646	-1066.396	1116.5647	1408.65186	-895.06696	1341.65002	1414.78992	-862.59857	1174.68652	1408.83569	-1081.16052	1255.98267	1498.83997	-923.87744	1383.172	1259.28711	-898.16626	1196.96985	1177.15552	-860.54694	1081.08459	1158.47595	-802.09741	964.57751	1156.87756	-759.71924	851.68756	1182.78882	-773.23798	857.74756	1129.0802	-735.00159	783.42206	1133.08228	-947.75897	1368.54077	1571.49121	-965.46692	1148.18091	1645.35327	-955.01337	1035.75183	1659.33447	-937.1712	900.06433	1658.88318	-903.09723	807.28473	1622.27966	-937.03351	799.55243	1664.1449	-909.99237	730.50281	1653.60046	-911.73639	945.61267	1289.27502	-904.50543	944.65466	1527.39465	-1070.54553	975.74219	1346.50183	-1064.83069	976.93597	1494.60327	-983.99731	647.09778	1256.66345	-985.20679	470.02493	1297.78735	-1043.39355	282.55487	1296.17078	-1063.60449	71.67813	1337.86023	-1103.55823	36.53766	1374.73169	-910.82831	35.35839	1357.57947	-889.64569	656.44299	1576.88904	-817.35382	491.65674	1549.30164	-910.65167	324.09818	1555.64954	-1015.36273	134.54301	1517.32056	-1070.22559	119.20128	1466.73035	-903.11694	50.42154	1496.80591	-954.07788	1681.28235	1410.51929	NaN	NaN	NaN	NaN	NaN	NaN	NaN	NaN	NaN	NaN	NaN	NaN
39	0.38	-855.96814	1628.34387	1358.01038	-859.17737	1628.41382	1491.54895	-980.60211	1572.26855	1358.82324	-978.28546	1572.69666	1490.0885	-1004.48633	1425.73022	1406.4425	-1058.42065	1115.86279	1407.85559	-887.30463	1341.02954	1414.55725	-854.75128	1174.05408	1408.3999	-1073.46436	1254.96826	1497.96643	-915.96777	1382.99792	1259.14722	-888.98969	1197.32959	1176.60132	-850.22723	1082.03613	1157.69861	-789.62903	966.56799	1156.35168	-744.21411	855.18695	1183.10815	-758.44489	860.18073	1129.61707	-718.25073	786.9184	1134.26428	-940.4126	1367.40979	1571.25708	-958.36737	1146.92334	1644.74976	-949.92902	1034.75562	1658.53699	-930.72919	898.84967	1658.02197	-896.75598	805.96521	1621.40698	-930.76727	798.29791	1663.21899	-903.8559	729.00262	1652.51025	-903.39203	944.97302	1288.89331	-896.44824	944.31927	1526.76624	-1062.60291	974.90454	1345.95972	-1056.9657	976.21704	1494.05322	-977.57849	646.52606	1256.64319	-980.78473	469.66595	1297.66748	-1040.90735	282.52014	1296.12109	-1063.14001	71.94624	1338.13416	-1103.45642	36.87796	1374.97803	-910.62054	35.28568	1357.52307	-879.31561	657.00696	1576.85364	-805.81897	492.70963	1548.72717	-892.26636	320.87961	1554.69238	-987.37567	126.36246	1515.37732	-1041.12366	108.26674	1464.32239	-870.84814	48.57346	1495.57825	-945.69696	1680.83936	1410.80225	NaN	NaN	NaN	NaN	NaN	NaN	NaN	NaN	NaN	NaN	NaN	NaN
40	0.39	-847.59967	1627.56335	1358.29846	-850.97015	1627.42859	1491.79785	-972.32788	1571.75415	1358.91797	-970.23718	1572.00183	1490.15027	-996.43347	1424.83032	1406.17627	-1050.44531	1115.09033	1407.2146	-879.47363	1340.18518	1414.32361	-846.82428	1173.30908	1408.08887	-1065.76208	1253.94238	1497.18884	-907.88055	1382.60657	1259.06067	-879.35345	1197.64941	1176.07678	-840.10321	1082.57471	1157.02991	-777.31921	968.45862	1156.06006	-728.97052	858.62146	1183.58411	-743.85889	862.46179	1130.32434	-701.83704	790.2121	1135.65125	-932.92963	1366.20337	1571.0448	-951.2887	1145.56384	1644.18616	-941.61469	1033.24792	1658.12927	-924.18262	897.44244	1657.22473	-890.38391	804.58521	1620.49939	-924.33221	796.91205	1662.39478	-897.68164	727.55322	1651.47485	-896.27588	944.05286	1287.65735	-888.54572	943.75055	1526.15417	-1054.66882	974.04138	1345.48694	-1049.04492	975.24121	1493.51978	-971.28412	645.95728	1256.38464	-976.65747	469.01172	1297.36157	-1038.55225	282.52594	1296.10779	-1062.76221	72.1861	1338.349	-1103.70325	37.34293	1375.40869	-910.80017	35.09362	1357.34937	-869.18335	657.31696	1577.1084	-794.87946	493.39691	1548.24707	-874.08759	317.61508	1553.92273	-958.72845	118.3452	1513.48401	-1011.53864	97.73183	1462.18433	-838.38617	47.25816	1494.62793	-937.33411	1680.21973	1411.17188	NaN	NaN	NaN	NaN	NaN	NaN	NaN	NaN	NaN	NaN	NaN	NaN
41	0.4	-839.23688	1626.72388	1358.6665	-842.76392	1626.32593	1492.19019	-963.99457	1571.06897	1359.0741	-962.17108	1571.12463	1490.35754	-988.43628	1424.02893	1406.05249	-1042.43335	1114.21814	1406.78992	-871.30768	1339.35181	1414.3783	-838.82294	1172.34009	1407.72888	-1057.93347	1252.84094	1496.49976	-899.66327	1382.08105	1258.97644	-870.17987	1197.6532	1175.70544	-830.5274	1082.91553	1156.17041	-765.1709	970.11047	1155.86169	-713.89862	862.05554	1184.3302	-729.53644	864.52881	1131.18823	-685.87366	793.32855	1137.3147	-925.43024	1364.91138	1570.88904	-944.02307	1144.21155	1643.6366	-934.66296	1031.68604	1657.25293	-917.54889	895.93243	1656.45422	-883.88104	803.01904	1619.67737	-918.0293	795.43372	1661.51282	-891.60706	726.19824	1650.60254	-887.95251	943.20294	1287.28674	-880.37311	943.09198	1525.69531	-1046.70911	973.24829	1345.15649	-1041.10022	974.26776	1493.03015	-964.85309	645.30341	1256.29846	-972.48383	468.44882	1297.31946	-1036.14783	282.5062	1296.17224	-1062.49988	72.43684	1338.57056	-1103.69678	37.96314	1375.81555	-910.51306	35.05241	1357.46448	-859.68896	657.034	1577.30725	-784.48767	493.68802	1547.96985	-856.03516	314.27084	1553.37769	-929.97845	111.10578	1512.14539	-981.3194	87.65834	1460.42749	-805.74518	46.46888	1494.0022	-928.98914	1679.42773	1411.64417	NaN	NaN	NaN	NaN	NaN	NaN	NaN	NaN	NaN	NaN	NaN	NaN
42	0.41	-830.78052	1625.79089	1359.0907	-834.48096	1625.15466	1492.72839	-955.56201	1570.29651	1359.25977	-953.78766	1570.0459	1490.38916	-980.30078	1423.19897	1405.99524	-1034.28125	1113.24377	1406.44824	-863.28168	1338.25	1414.28259	-830.70691	1171.30579	1407.42456	-1049.98035	1251.6405	1495.91101	-891.37146	1381.33838	1258.94934	-860.86902	1197.41101	1175.37219	-820.58142	1082.98474	1155.88428	-753.33173	971.58929	1155.93176	-699.29559	865.26105	1185.22363	-715.53168	866.44366	1132.34253	-669.92889	796.44861	1139.25586	-917.85486	1363.62207	1570.78442	-936.65668	1142.64954	1643.19824	-927.90491	1030.2124	1656.57251	-910.70544	894.37335	1655.77344	-877.2782	801.3147	1618.86011	-911.36731	793.86816	1660.85803	-884.99341	724.16522	1649.54626	-880.3432	942.01642	1286.76501	-872.13647	942.22882	1525.37549	-1038.37744	971.89331	1344.60986	-1033.06213	972.97955	1492.63147	-958.3363	644.60547	1256.23474	-968.14508	467.92004	1297.19824	-1033.75916	282.55212	1296.15161	-1062.21509	72.72479	1338.73962	-1103.62341	38.31945	1376.01062	-910.40399	34.9294	1357.47693	-850.74762	656.3233	1577.50854	-774.68518	493.5481	1547.88647	-838.16144	310.98486	1552.95935	-900.26843	103.84707	1510.85339	-950.43787	78.2244	1458.9762	-772.86377	46.07232	1493.41833	-920.54266	1678.48401	1412.10913	NaN	NaN	NaN	NaN	NaN	NaN	NaN	NaN	NaN	NaN	NaN	NaN
43	0.42	-822.27783	1624.83813	1359.6377	-826.19519	1623.89746	1493.25049	-947.06299	1569.3949	1359.46094	-945.64258	1568.91772	1490.70276	-971.93317	1422.06848	1405.91309	-1026.09216	1112.18152	1406.24707	-855.14258	1337.12683	1414.23901	-822.60443	1170.20715	1407.10205	-1041.97314	1250.43567	1495.35925	-882.95636	1380.51379	1258.95251	-851.90051	1196.96863	1175.10132	-810.50488	1082.80762	1155.67725	-741.65344	972.83368	1156.08203	-684.99023	868.25391	1186.30408	-701.78033	868.16925	1133.63306	-654.46027	799.36865	1141.35876	-909.67334	1362.05664	1570.77856	-929.31073	1141.14014	1642.68066	-920.69971	1028.7594	1655.97339	-903.82611	892.70844	1655.05701	-870.65686	799.70154	1618.1698	-904.70111	792.19373	1660.0741	-878.73328	722.66516	1648.85339	-872.02991	941.06506	1286.47791	-863.99799	941.15082	1525.10022	-1030.11938	970.75555	1344.26331	-1024.99097	971.69568	1492.28027	-951.7926	643.95819	1256.27539	-963.76544	467.4577	1297.27234	-1031.3562	282.62076	1296.19214	-1061.94019	73.02979	1338.86792	-1103.59534	38.82122	1376.23303	-910.33832	34.83894	1357.44873	-841.62311	655.53967	1578.18396	-765.45129	493.02487	1547.88513	-820.54352	307.82117	1552.79883	-870.64197	97.41473	1509.98962	-919.06458	69.48582	1457.76917	-740.44495	46.2211	1493.45215	-912.07721	1677.46997	1412.58777	NaN	NaN	NaN	NaN	NaN	NaN	NaN	NaN	NaN	NaN	NaN	NaN
